<?xml version="1.0" encoding="UTF-8"?>
<svg id="Layer_2" xmlns="http://www.w3.org/2000/svg" version="1.1" viewBox="0 0 128 35.6">
  <!-- Generator: Adobe Illustrator 29.7.1, SVG Export Plug-In . SVG Version: 2.1.1 Build 8)  -->
  <defs>
    <style>
      .st0 {
        fill: #fff;
      }
    </style>
  </defs>
  <path class="st0" d="M60.4,10.9v20.9h-5.7v-2.7c-1.5,1.8-3.6,2.7-6.4,2.7-5.8,0-10.2-4.1-10.2-10.5s4.4-10.5,10.2-10.5,4.6.8,6.1,2.5v-2.3h5.9ZM54.6,21.2c0-3.5-2.3-5.7-5.2-5.7s-5.2,2.1-5.2,5.7,2.3,5.7,5.2,5.7,5.2-2.1,5.2-5.7Z"/>
  <path class="st0" d="M83.2,20v11.7h-5.9v-10.8c0-3.3-1.5-4.8-4.1-4.8s-4.9,1.7-4.9,5.5v10.1h-5.9V10.9h5.7v2.8c1.6-1.7,4-2.7,6.8-2.7,4.8,0,8.5,2.8,8.5,9Z"/>
  <path class="st0" d="M102.8,24.1l3.6,2.9c-1.6,2.4-4.2,4-7.9,4.5-7,1-12.2-2.7-13.1-8.7-.9-6,3-11.1,9.3-12,5.7-.8,11,2.2,12,8.7l-14.8,5.1c1.2,1.9,3.5,2.6,6.1,2.2s3.6-1.2,4.8-2.7ZM91.2,21.4l9.6-3.4c-.9-2-2.8-3.1-5.3-2.7s-4.7,2.7-4.3,6.1Z"/>
  <path class="st0" d="M121.1,30.4c-1.2.9-3,1.3-4.8,1.3-4.9,0-7.6-2.5-7.6-7.3v-14.3l5.9-6.2v8h5.5v4.6h-5.5v7.9c0,1.7.9,2.7,2.5,2.7s1.7-.3,2.4-.8l1.6,4.2Z"/>
  <path class="st0" d="M126.7,7.3c0,1.8-1.4,3.3-3.3,3.3s-3.2-1.4-3.2-3.2,1.4-3.2,3.3-3.2,3.2,1.4,3.2,3.2ZM126.1,7.3c0-1.5-1.1-2.6-2.6-2.6s-2.6,1.2-2.6,2.7,1.1,2.7,2.6,2.7,2.6-1.2,2.6-2.7ZM124.5,7.9l.8,1.2h-1l-.7-1h-.6v1h-1v-3.6h1.6c1,0,1.6.5,1.6,1.3s-.2.9-.7,1.1ZM123.5,7.4c.4,0,.7-.2.7-.6s-.2-.6-.7-.6h-.5v1.1h.5Z"/>
  <polygon class="st0" points="19.4 31.7 27.8 31.7 14.5 17.7 27.6 4 19.2 4 7.4 16.4 7.4 4 1.3 10.4 1.3 31.6 10.3 22.1 19.4 31.7"/>
  <path class="st0" d="M27,24.7v-14.5l5.9-6.3v20.5c0,1.7.9,2.7,2.5,2.7s1.3-.2,1.7-.4l.3,4.6c-1,.3-2.1.5-3.1.5-4.6,0-7.3-2.5-7.3-7.1Z"/>
</svg>